<svg width="96" height="96" xmlns="http://www.w3.org/2000/svg" xmlns:xlink="http://www.w3.org/1999/xlink" xml:space="preserve" overflow="hidden"><g transform="translate(-592 -312)"><g><path d="M654 332 660 332 660 326 648 326 648 350 654 350Z" stroke="#00B0F0" stroke-width="4" stroke-linecap="butt" stroke-linejoin="miter" stroke-miterlimit="4" stroke-opacity="1" fill="#61CBF4" fill-rule="nonzero" fill-opacity="1"/><path d="M632 378 608 378 608 354C608 347.4 613.4 342 620 342 626.6 342 632 347.4 632 354L632 378ZM660 336 658 336 658 354 644 354 644 336 620 336C610.1 336 602 344.1 602 354L602 384 636 384 636 394 644 394 644 384 678 384 678 354C678 344.1 669.9 336 660 336Z" stroke="#00B0F0" stroke-width="4" stroke-linecap="butt" stroke-linejoin="miter" stroke-miterlimit="4" stroke-opacity="1" fill="#61CBF4" fill-rule="nonzero" fill-opacity="1"/></g></g></svg>