<svg width="320" height="321" xmlns="http://www.w3.org/2000/svg" xmlns:xlink="http://www.w3.org/1999/xlink" xml:space="preserve" overflow="hidden"><g transform="translate(-128 -80)"><g><g><g><g><path d="M129.333 306.8C88.6667 297.733 55.3333 275.2 32.4 241.067-7.73333 180.933 0.266667 100.267 51.4667 48.8 66.8 33.3333 90.1333 18.4 107.733 12.6667 114.267 10.5333 115.067 10.5333 118 12.5333 121.2 14.6667 121.333 15.2 121.333 30.5333L121.333 46.2667 109.6 45.6C95.8667 44.9333 85.2 47.3333 78.8 52.8 76.5333 54.6667 72.1333 61.0667 69.0667 66.9333 64 76.8 60.2667 81.3333 49.8667 90.5333 46.4 93.6 46.2667 93.7333 48.6667 95.4667 54.4 99.7333 66 95.6 73.3333 86.8 86.1333 71.2 91.0667 67.0667 98.4 65.4667 104.933 64.1333 110.933 64.6667 120 67.3333 121.2 67.7333 122.8 70.5333 123.6 73.7333 124.4 76.8 126.533 81.4667 128.267 84L131.467 88.6667 120.667 90.8C98 95.4667 84 103.6 74.8 117.467 66.2667 130.267 63.4667 141.333 63.3333 162 63.3333 181.467 65.4667 189.467 73.8667 200.4 77.6 205.2 78 206.667 76.9333 209.467 74.9333 214.267 75.4667 234.533 77.6 240.667 79.3333 245.2 80.2667 246 83.8667 246.4 89.8667 247.067 101.067 243.2 112.4 236.8L122.133 231.2 130.667 233.2C142.8 236 179.2 235.867 190.133 233.2L198.4 231.067 206.133 235.733C216.4 241.867 229.467 246.667 236 246.667 241.2 246.667 241.2 246.533 243.333 239.733 245.6 231.867 246 217.6 244 210.8 242.933 206.8 243.2 205.6 246.133 201.733 260.667 182.533 262.267 150.667 250 124.533 241.733 107.333 224.267 95.3333 200.8 90.9333L189.6 88.8 193.733 81.4667 198 74 198.4 44.2667 198.933 14.5333 202.267 12.4C205.333 10.4 206 10.4 212.4 12.6667 223.067 16.2667 241.333 26.1333 251.333 33.7333 310.8 78.2667 330 158.133 297.067 224.533 277.733 263.6 241.2 293.6 199.333 304.8 181.067 309.6 146.667 310.667 129.333 306.8Z" fill="#61CBF4" fill-rule="nonzero" fill-opacity="1" transform="matrix(1 0 0 -1 128 401)"/></g></g></g></g></g></svg>